<?xml version="1.0" encoding="UTF-8"?>
<svg width="1024px" height="768px" viewBox="0 0 1024 768" version="1.1" xmlns="http://www.w3.org/2000/svg" xmlns:xlink="http://www.w3.org/1999/xlink">
    <!-- Generator: Sketch 58 (84663) - https://sketch.com -->
    <title>2021 Challenger</title>
    <desc>Created with Sketch.</desc>
    <defs>
        <filter x="-1.2%" y="-1.7%" width="102.3%" height="103.4%" filterUnits="objectBoundingBox" id="filter-1">
            <feOffset dx="0" dy="2" in="SourceAlpha" result="shadowOffsetOuter1"></feOffset>
            <feGaussianBlur stdDeviation="2" in="shadowOffsetOuter1" result="shadowBlurOuter1"></feGaussianBlur>
            <feColorMatrix values="0 0 0 0 0   0 0 0 0 0   0 0 0 0 0  0 0 0 0.5 0" type="matrix" in="shadowBlurOuter1" result="shadowMatrixOuter1"></feColorMatrix>
            <feMerge>
                <feMergeNode in="shadowMatrixOuter1"></feMergeNode>
                <feMergeNode in="SourceGraphic"></feMergeNode>
            </feMerge>
        </filter>
        <path d="M490,207 C502.150264,207 512,217.009677 512,229.357239 C512,239.320483 505.586964,247.761561 496.726958,250.650003 L490.685087,258 L483.533104,250.732969 C474.538803,247.926152 468,239.417705 468,229.357239 C468,217.009677 477.849736,207 490,207 Z" id="path-2"></path>
        <filter x="-15.9%" y="-9.8%" width="131.8%" height="127.5%" filterUnits="objectBoundingBox" id="filter-3">
            <feOffset dx="0" dy="2" in="SourceAlpha" result="shadowOffsetOuter1"></feOffset>
            <feGaussianBlur stdDeviation="2" in="shadowOffsetOuter1" result="shadowBlurOuter1"></feGaussianBlur>
            <feComposite in="shadowBlurOuter1" in2="SourceAlpha" operator="out" result="shadowBlurOuter1"></feComposite>
            <feColorMatrix values="0 0 0 0 0.203921569   0 0 0 0 0.301960784   0 0 0 0 0.356862745  0 0 0 0.266826923 0" type="matrix" in="shadowBlurOuter1"></feColorMatrix>
        </filter>
        <polygon id="path-4" points="0 0 1026 0 1026 706 573 706 0 706"></polygon>
        <filter x="-14.3%" y="-20.8%" width="128.7%" height="141.6%" filterUnits="objectBoundingBox" id="filter-5">
            <feMorphology radius="94" operator="erode" in="SourceAlpha" result="shadowSpreadInner1"></feMorphology>
            <feGaussianBlur stdDeviation="40" in="shadowSpreadInner1" result="shadowBlurInner1"></feGaussianBlur>
            <feOffset dx="120" dy="100" in="shadowBlurInner1" result="shadowOffsetInner1"></feOffset>
            <feComposite in="shadowOffsetInner1" in2="SourceAlpha" operator="arithmetic" k2="-1" k3="1" result="shadowInnerInner1"></feComposite>
            <feColorMatrix values="0 0 0 0 0   0 0 0 0 0   0 0 0 0 0  0 0 0 0.5 0" type="matrix" in="shadowInnerInner1"></feColorMatrix>
        </filter>
        <linearGradient x1="109.059463%" y1="-3.069641%" x2="8.7063%" y2="99.5264044%" id="linearGradient-6">
            <stop stop-color="#E82121" offset="0.0527871622%"></stop>
            <stop stop-color="#000000" stop-opacity="0.2" offset="100%"></stop>
        </linearGradient>
        <linearGradient x1="26.4656396%" y1="11.6863102%" x2="88.3781248%" y2="95.037483%" id="linearGradient-7">
            <stop stop-color="#E82121" offset="0%"></stop>
            <stop stop-color="#000000" stop-opacity="0.2" offset="100%"></stop>
        </linearGradient>
        <linearGradient x1="44.7069185%" y1="26.1952191%" x2="50%" y2="53.6081533%" id="linearGradient-8">
            <stop stop-color="#FF2121" stop-opacity="0.5" offset="0%"></stop>
            <stop stop-color="#141414" offset="100%"></stop>
        </linearGradient>
        <linearGradient x1="44.7069185%" y1="27.5818396%" x2="50%" y2="53.3979795%" id="linearGradient-9">
            <stop stop-color="#FF2121" stop-opacity="0.5" offset="0%"></stop>
            <stop stop-color="#141414" offset="100%"></stop>
        </linearGradient>
        <path d="M482.453,362.8359 L195.919,361.1579 C167.296,359.2819 151.745,329.2909 144.142,315.7979 C139.057,306.7729 133.95,297.7759 128.729,288.9159 L2.84217094e-14,0.0009 L124.136,330.9069 C125.072,332.8659 125.858,334.9399 126.836,336.8889 C154.3,391.5749 185.506,388.6969 209.838,389.7609 C213.946,389.9399 218.06,389.7749 222.171,389.8559 L482.453,391.5749 L482.453,391.5749 L482.453,362.8359 Z" id="path-10"></path>
        <filter x="-1.5%" y="-1.8%" width="102.9%" height="103.6%" filterUnits="objectBoundingBox" id="filter-11">
            <feMorphology radius="4" operator="erode" in="SourceAlpha" result="shadowSpreadInner1"></feMorphology>
            <feGaussianBlur stdDeviation="3.5" in="shadowSpreadInner1" result="shadowBlurInner1"></feGaussianBlur>
            <feOffset dx="3" dy="-2" in="shadowBlurInner1" result="shadowOffsetInner1"></feOffset>
            <feComposite in="shadowOffsetInner1" in2="SourceAlpha" operator="arithmetic" k2="-1" k3="1" result="shadowInnerInner1"></feComposite>
            <feColorMatrix values="0 0 0 0 1   0 0 0 0 1   0 0 0 0 1  0 0 0 0.5 0" type="matrix" in="shadowInnerInner1"></feColorMatrix>
        </filter>
        <path d="M836.1781,288.915 C830.9571,297.775 825.8501,306.773 820.7651,315.797 C813.1611,329.29 797.6111,359.282 768.9881,361.157 L482.4541,362.836 L482.4541,391.574 L742.7371,389.854 C746.8471,389.774 750.9611,389.939 755.0691,389.76 C779.4011,388.697 810.6071,391.574 838.0711,336.888 C839.0491,334.939 839.8351,332.865 840.7711,330.906 L964.9071,0 L836.1781,288.915 Z" id="path-12"></path>
        <filter x="-1.5%" y="-1.8%" width="102.9%" height="103.6%" filterUnits="objectBoundingBox" id="filter-13">
            <feMorphology radius="4" operator="erode" in="SourceAlpha" result="shadowSpreadInner1"></feMorphology>
            <feGaussianBlur stdDeviation="3.5" in="shadowSpreadInner1" result="shadowBlurInner1"></feGaussianBlur>
            <feOffset dx="3" dy="-2" in="shadowBlurInner1" result="shadowOffsetInner1"></feOffset>
            <feComposite in="shadowOffsetInner1" in2="SourceAlpha" operator="arithmetic" k2="-1" k3="1" result="shadowInnerInner1"></feComposite>
            <feColorMatrix values="0 0 0 0 1   0 0 0 0 1   0 0 0 0 1  0 0 0 0.5 0" type="matrix" in="shadowInnerInner1"></feColorMatrix>
        </filter>
        <filter x="-12.4%" y="-15.3%" width="124.9%" height="130.6%" filterUnits="objectBoundingBox" id="filter-14">
            <feGaussianBlur stdDeviation="20" in="SourceGraphic"></feGaussianBlur>
        </filter>
        <filter x="-12.4%" y="-15.3%" width="124.9%" height="130.6%" filterUnits="objectBoundingBox" id="filter-15">
            <feGaussianBlur stdDeviation="20" in="SourceGraphic"></feGaussianBlur>
        </filter>
        <path d="M807.7292,0.4097 L785.8482,0.4097 L22.3612,0.4107 L0.4802,0.4107 L19.3002,11.5717 L116.6932,69.3267 C136.9172,81.6087 172.8302,82.2307 179.8272,82.2307 C180.1192,82.2307 180.3052,82.2297 180.3772,82.2287 L404.1052,82.2287 L421.2102,82.2287 L421.2082,82.2277 L627.8332,82.2277 C627.9052,82.2287 628.0912,82.2297 628.3822,82.2297 C635.3792,82.2297 671.2922,81.6077 691.5162,69.3267 L788.9092,11.5707 L807.7292,0.4097 Z M785.8482,6.4097 L688.4282,64.1817 C669.2612,75.8417 633.1152,76.2297 628.3822,76.2297 C628.0442,76.2297 627.8662,76.2277 627.8662,76.2277 L404.1042,76.2277 L404.1052,76.2287 L180.3432,76.2287 C180.3432,76.2287 180.1662,76.2307 179.8272,76.2307 C175.0902,76.2307 138.9472,75.8417 119.7812,64.1827 L22.3612,6.4107 L785.8482,6.4097 L785.8482,6.4097 Z" id="path-16"></path>
        <filter x="-0.2%" y="-2.4%" width="100.5%" height="104.9%" filterUnits="objectBoundingBox" id="filter-17">
            <feGaussianBlur stdDeviation="1.5" in="SourceAlpha" result="shadowBlurInner1"></feGaussianBlur>
            <feOffset dx="0" dy="1" in="shadowBlurInner1" result="shadowOffsetInner1"></feOffset>
            <feComposite in="shadowOffsetInner1" in2="SourceAlpha" operator="arithmetic" k2="-1" k3="1" result="shadowInnerInner1"></feComposite>
            <feColorMatrix values="0 0 0 0 1   0 0 0 0 1   0 0 0 0 1  0 0 0 0.5 0" type="matrix" in="shadowInnerInner1"></feColorMatrix>
        </filter>
        <filter x="-66.7%" y="-57.7%" width="233.3%" height="215.4%" filterUnits="objectBoundingBox" id="filter-18">
            <feGaussianBlur stdDeviation="10" in="SourceGraphic"></feGaussianBlur>
        </filter>
        <filter x="-66.7%" y="-57.7%" width="233.3%" height="215.4%" filterUnits="objectBoundingBox" id="filter-19">
            <feGaussianBlur stdDeviation="10" in="SourceGraphic"></feGaussianBlur>
        </filter>
        <filter x="-90.0%" y="-61.3%" width="286.6%" height="208.9%" filterUnits="objectBoundingBox" id="filter-20">
            <feGaussianBlur stdDeviation="10" in="SourceGraphic"></feGaussianBlur>
        </filter>
        <filter x="-90.0%" y="-61.3%" width="286.6%" height="208.9%" filterUnits="objectBoundingBox" id="filter-21">
            <feGaussianBlur stdDeviation="10" in="SourceGraphic"></feGaussianBlur>
        </filter>
        <filter x="-19.8%" y="-19.0%" width="139.7%" height="138.1%" filterUnits="objectBoundingBox" id="filter-22">
            <feGaussianBlur stdDeviation="8" in="SourceGraphic"></feGaussianBlur>
        </filter>
        <filter x="-19.8%" y="-19.0%" width="139.7%" height="138.1%" filterUnits="objectBoundingBox" id="filter-23">
            <feGaussianBlur stdDeviation="8" in="SourceGraphic"></feGaussianBlur>
        </filter>
        <filter x="-19.8%" y="-19.0%" width="139.7%" height="138.1%" filterUnits="objectBoundingBox" id="filter-24">
            <feGaussianBlur stdDeviation="8" in="SourceGraphic"></feGaussianBlur>
        </filter>
        <filter x="-19.8%" y="-19.0%" width="139.7%" height="138.1%" filterUnits="objectBoundingBox" id="filter-25">
            <feGaussianBlur stdDeviation="8" in="SourceGraphic"></feGaussianBlur>
        </filter>
    </defs>
    <g id="2021-Challenger" stroke="none" stroke-width="1" fill="none" fill-rule="evenodd">
        <g id="background" transform="translate(0.000000, -1.000000)">
            <polygon fill="#141414" points="0.51 769.403 1024.51 769.403 1024.51 0.403 0.51 0.403"></polygon>
            <g id="map" filter="url(#filter-1)" opacity="0.75" transform="translate(0.000000, 1.000000)">
                <polygon id="Path" fill="#343434" points="680.39823 430.809689 692 549.224913 639.035398 562 635 420"></polygon>
                <polygon id="Path" fill="#343434" points="769 429 731.057971 539.021645 710.855072 544 701 437.961039"></polygon>
                <polygon id="Path" fill="#343434" points="475 507.301266 510.270968 388 624.529032 415.068354 629 564.946835 546.535484 586"></polygon>
                <polygon id="Path" fill="#343434" points="696 378.5 833.072165 362 840 408.5 700.948454 427"></polygon>
                <polygon id="Path" fill="#343434" points="673 380 677 420 594 400.5 606.5 361"></polygon>
                <polygon id="Path" fill="#343434" points="585.924855 398 512 381.557377 525.075145 339 599 359.311475"></polygon>
                <polygon id="Path" fill="#343434" points="491.046921 388 337 331.786802 354.44868 290 507 333.279188"></polygon>
                <path d="M487,396.8625 L470.813953,450 L400,427.0875 C405.05814,411.975 414.162791,383.7 417.703488,372 L487,396.8625 L487,396.8625 Z" id="Path" fill="#343434"></path>
                <path d="M385,443.93865 C381.536082,454.245399 375.103093,472.404908 367.185567,494 L289,460.134969 L294.443299,414 L385,443.93865 L385,443.93865 Z" id="Path" fill="#343434"></path>
                <polygon id="Path" fill="#343434" points="397.253731 446 466 469.38756 442.597015 550 368 530.593301"></polygon>
                <polygon id="Path" fill="#343434" points="744 537 781.829596 429.863248 842.058296 422 855 508.987179"></polygon>
                <path d="M814,252.019231 L695.285185,355 L681,202 L810.059259,205.432692 C811.044444,219.163462 813.014815,244.173077 814,252.019231 L814,252.019231 Z" id="Path" fill="#343434"></path>
                <polygon id="Path" fill="#343434" points="674 357 372 272.673152 395.422442 231 670.511551 319.249027"></polygon>
                <polygon id="Path" fill="#343434" points="333 283.846154 288.555556 390 253 378.205128 300.407407 275"></polygon>
                <polygon id="Path" fill="#343434" points="333.915423 337 409 365.16568 391.935323 422 311 393.83432"></polygon>
                <polygon id="Path" fill="#343434" points="285 409.430894 279.5 455 209 444.447154 243.5 396"></polygon>
                <path d="M282.093525,466.781818 L364,502.127273 C354.071942,530.109091 342.654676,562.018182 332.726619,590 L172.388489,559.072727 L157,519.8 L202.172662,455 L282.093525,466.781818 L282.093525,466.781818 Z" id="Path" fill="#343434"></path>
                <polygon id="Path" fill="#343434" points="660.970149 199.013575 671 307 503 252.253394 526.068657 196"></polygon>
                <polygon id="Path" fill="#343434" points="492.5 249 399 219.044643 403 194 514 196.946429"></polygon>
                <path d="M386.075472,213 L312,191 L390,192.795918 C388.528302,199.530612 387.056604,207.612245 386.075472,213 L386.075472,213 Z" id="Path" fill="#343434"></path>
                <polygon id="Path" fill="#343434" points="383 226.5625 359.326975 268 202 223.6375 218.275204 190 275.485014 191.4625"></polygon>
                <polygon id="Path" fill="#343434" points="290 269.291667 242.657534 373 146 340.746212 193.342466 242"></polygon>
                <polygon id="Path" fill="#343434" points="231 393 150 511 111 409.5 134.5 361"></polygon>
                <path d="M875,185 L817.5,183.5 C816,167 813,133.5 812,120 L867.5,122 L875,185 L875,185 Z" id="Path" fill="#343434"></path>
                <polygon id="Path" fill="#343434" points="305 91.057971 297.346939 122 255 118.956522 270.306122 87"></polygon>
                <polygon id="Path" fill="#343434" points="313.966507 91 411 102.84 406.023923 128 307 120.6"></polygon>
                <polygon id="Path" fill="#343434" points="401 139.733333 394.574713 172 229 167.6 248.275862 128"></polygon>
                <path d="M416.690141,106 L475,108.553191 C473.985915,122.340426 471.957746,159.617021 470.943662,178 L403,176.468085 C405.535211,161.659574 410.605634,135.617021 416.690141,106 L416.690141,106 Z" id="Path" fill="#343434"></path>
                <polygon id="Path" fill="#343434" points="488.921569 109 535 110.942029 530.098039 176 485 175.028986"></polygon>
                <polygon id="Path" fill="#343434" points="554.044643 109 657.459821 113.143885 662 181 549 177.892086"></polygon>
                <polygon id="Path" fill="#343434" points="668 115 707 116.511278 705.097561 182 672.280488 180.992481"></polygon>
                <polygon id="Path" fill="#343434" points="730.4625 116 801.6375 119 807 183 729 181"></polygon>
                <polyline id="To-Location" stroke="#A50A0A" stroke-width="6" stroke-linecap="round" stroke-linejoin="round" points="491.019329 254.672481 391.459863 225 361 283.196634 520.345886 325.798889 502.16686 385.195787 572 400"></polyline>
                <circle id="Oval-Copy" fill="#FFFFFF" opacity="0.0980050223" cx="491" cy="230" r="60"></circle>
                <circle id="Oval" fill="#FFFFFF" opacity="0.0680106027" cx="491.5" cy="230.5" r="43.5"></circle>
                <g id="Combined-Shape">
                    <use fill="black" fill-opacity="1" filter="url(#filter-3)" xlink:href="#path-2"></use>
                    <use fill-opacity="0.25" fill="#06FF00" fill-rule="evenodd" xlink:href="#path-2"></use>
                </g>
                <polyline id="Path-3" stroke-opacity="0.5" stroke="#FFA400" stroke-width="10" points="590.206897 442 572 400.6 596.767726 398.010647 616 396"></polyline>
                <g id="Rectangle" fill="black" fill-opacity="1">
                    <use filter="url(#filter-5)" xlink:href="#path-4"></use>
                </g>
            </g>
            <g id="gradients" transform="translate(0.489200, 0.000000)" fill-opacity="0.4">
                <path d="M330.443,706.6995 L0,706.6995 L0,344.7335 L80.758,583.9525 C85.594,594.7725 88.812,604.7765 93.782,615.6275 C101.3,632.0415 119.836,666.8625 152.044,669.0735 L330.786,671.0505" id="base-left" fill="url(#linearGradient-6)"></path>
                <path d="M693.2565,671.0501 L873.013484,669.0731 C905.263642,666.8631 923.823904,632.0411 931.351745,615.6271 C936.32825,604.7771 939.550463,594.7731 944.392793,583.9521 L1025.2565,344.7341 L1025.2565,706.6991 L693.2565,706.6991 L693.2565,671.0501 Z" id="base-right" fill="url(#linearGradient-7)"></path>
                <path d="M788.656267,67.9104 L905.085562,1.0004 L1024.0215,1.4764 L1024.0215,160.4284 C1000.86781,179.4444 779.440015,160.4244 779.440015,160.4244 L520.0215,160.4234 L520.0215,69.3774 L788.656267,67.9104 Z" id="gradient-right" fill="url(#linearGradient-8)"></path>
                <path d="M277.3288,66.91 L397.3048,0 L519.8638,0.476 L519.8638,159.428 C496.0048,178.444 267.8318,159.424 267.8318,159.424 L0.5108,159.423 L0.5108,68.377 L277.3288,66.91 Z" id="gradient-left" fill="url(#linearGradient-9)" transform="translate(260.187300, 83.939259) scale(-1, 1) translate(-260.187300, -83.939259) "></path>
            </g>
        </g>
        <g id="middleground" transform="translate(-0.489600, 143.631100)">
            <g id="right-dashes" transform="translate(688.023900, 118.229000)">
                <path d="M14.0806,319.8628 L21.9636,332.8878 L29.7526,345.9678 L37.4766,359.0868 L45.1746,372.2188 L45.2056,372.2728 L45.2226,372.3318 C46.8666,378.1478 48.5656,383.9488 50.1636,389.7788 C51.7736,395.6058 53.3646,401.4378 54.8576,407.2988 C52.9806,401.5498 51.2016,395.7718 49.4416,389.9888 C47.6696,384.2088 45.9986,378.3998 44.2726,372.6068 L44.3206,372.7178 L36.6846,359.5488 L29.0756,346.3628 L21.5306,333.1398 L14.0806,319.8628 Z" id="Fill-85" fill="#C9C9C9"></path>
                <path d="M89.6143,319.3736 C93.3993,323.6496 97.1613,327.9466 100.9003,332.2636 L112.0873,345.2356 L123.2023,358.2706 L134.2493,371.3636 L134.2873,371.4086 L134.3123,371.4606 L138.4913,380.2106 L142.6113,388.9906 C145.3663,394.8396 148.0733,400.7116 150.7503,406.5986 C147.8113,400.8386 144.9023,395.0626 142.0423,389.2656 L137.7373,380.5746 L133.4923,371.8546 L133.5553,371.9516 L122.4573,358.9016 L111.4283,345.7946 L100.4723,332.6256 C96.8303,328.2276 93.2103,323.8106 89.6143,319.3736" id="Fill-91" fill="#C9C9C9"></path>
                <path d="M159.249,297.8228 L169.661,306.6818 L180,315.6238 L190.291,324.6208 L200.561,333.6398 L200.595,333.6698 L200.622,333.7048 C205.886,340.4718 211.196,347.2028 216.422,353.9998 C221.659,360.7878 226.879,367.5888 232.02,374.4528 C226.564,367.8358 221.189,361.1558 215.831,354.4648 C210.462,347.7798 205.175,341.0308 199.844,334.3168 L199.905,334.3828 L189.684,325.3068 L179.482,316.2108 L169.33,307.0568 L159.249,297.8228 Z" id="Fill-97" fill="#C9C9C9"></path>
                <path d="M189.437,244.0689 C196.145,247.8399 202.801,251.6999 209.446,255.5759 C216.097,259.4429 222.695,263.3979 229.323,267.3049 L229.367,267.3319 L229.405,267.3669 L238.134,275.5029 C241.035,278.2229 243.963,280.9159 246.842,283.6609 L255.5,291.8719 L264.084,300.1639 L255.161,292.2389 L246.311,284.2339 C243.354,281.5729 240.446,278.8599 237.511,276.1749 L228.732,268.0939 L228.815,268.1559 C222.231,264.1749 215.619,260.2439 209.06,256.2229 C202.494,252.2129 195.939,248.1839 189.437,244.0689" id="Fill-103" fill="#C9C9C9"></path>
                <path d="M209.1348,191.5601 C212.6978,193.2351 216.2318,194.9661 219.7798,196.6721 L230.3738,201.8811 L240.9328,207.1631 L251.4748,212.4761 L251.5158,212.4961 L251.5508,212.5231 C257.1328,216.8191 262.7558,221.0621 268.3048,225.4011 C273.8678,229.7221 279.4168,234.0621 284.9088,238.4771 C279.1828,234.3711 273.5128,230.1901 267.8578,225.9891 C262.1888,221.8071 256.5928,217.5291 250.9568,213.3031 L251.0318,213.3501 L240.5148,207.9871 L230.0138,202.5911 L219.5498,197.1241 C216.0768,195.2721 212.5918,193.4451 209.1348,191.5601" id="Fill-109" fill="#C9C9C9"></path>
                <path d="M228.0264,141.2017 C235.4374,144.4217 242.7894,147.7657 250.1434,151.1067 L261.1384,156.1957 C264.8024,157.8927 268.4704,159.5827 272.1144,161.3237 L272.1654,161.3477 L272.2054,161.3797 C277.3154,165.4027 282.4664,169.3737 287.5364,173.4487 C292.6294,177.4937 297.7024,181.5647 302.7274,185.6977 C297.4804,181.8507 292.2804,177.9427 287.1014,174.0097 C281.8984,170.1047 276.7774,166.0967 271.6154,162.1387 L271.7064,162.1947 C268.0364,160.5097 264.3904,158.7727 260.7404,157.0447 L249.7934,151.8537 C242.5194,148.3427 235.2434,144.8347 228.0264,141.2017" id="Fill-115" fill="#C9C9C9"></path>
                <path d="M246.1333,92.9341 C253.7603,96.1871 261.3263,99.5721 268.8933,102.9561 L280.2063,108.1121 C283.9833,109.8181 287.7393,111.5671 291.4943,113.3221 L291.5333,113.3411 L291.5653,113.3631 L298.7783,118.4171 C301.1893,120.0921 303.5643,121.8181 305.9583,123.5171 L313.1173,128.6491 L320.2333,133.8411 L312.8813,128.9881 L305.5723,124.0721 C303.1443,122.4231 300.6963,120.8011 298.2853,119.1261 L291.0293,114.1341 L291.1013,114.1751 C287.3273,112.4611 283.5573,110.7421 279.8063,108.9781 L268.5373,103.7271 C261.0493,100.1731 253.5613,96.6191 246.1333,92.9341" id="Fill-121" fill="#C9C9C9"></path>
                <path d="M266.3325,39.0899 C270.2825,40.6909 274.2235,42.3139 278.1465,43.9769 C282.0645,45.6519 286.0055,47.2759 289.9055,48.9909 L301.6275,54.0879 L313.3065,59.2839 L313.3295,59.2939 L313.3465,59.3039 C315.3255,60.4459 317.3185,61.5629 319.2855,62.7279 L325.2005,66.1929 C329.1485,68.4939 333.0665,70.8489 336.9755,73.2189 C332.9355,71.0799 328.9035,68.9259 324.9025,66.7169 L318.8935,63.4199 C316.8845,62.3289 314.9025,61.1909 312.9075,60.0789 L312.9475,60.0989 L301.2285,54.9939 L289.5535,49.7899 C285.6545,48.0719 281.7955,46.2619 277.9155,44.5039 C274.0395,42.7329 270.1815,40.9219 266.3325,39.0899" id="Fill-127" fill="#C9C9C9"></path>
                <path d="M0.4214,372.4693 L150.2774,371.5583 C182.4864,369.3483 201.0214,334.5263 208.5394,318.1123 C213.5094,307.2613 216.7274,297.2573 221.5634,286.4383 L336.9754,0.6333" id="Stroke-42" stroke="#CF2D26"></path>
            </g>
            <g id="left-dashes" transform="translate(0.770500, 91.232000)">
                <path d="M341.2065,346.9799 L334.3965,360.2199 L327.4895,373.4099 L320.5175,386.5629 L313.5175,399.7029 L313.5655,399.5699 C312.3185,405.3659 311.1285,411.1729 309.8345,416.9599 C308.5535,422.7499 307.2515,428.5339 305.8515,434.2979 C306.8615,428.4529 307.9705,422.6279 309.0995,416.8069 C310.2145,410.9839 311.4355,405.1819 312.5975,399.3689 L312.6115,399.2989 L312.6455,399.2349 L319.7085,386.1299 L326.7985,373.0399 L333.9545,359.9839 L341.2065,346.9799 Z" id="Fill-137" fill="#C9C9C9"></path>
                <path d="M323.1264,346.8608 L315.6754,360.1388 L308.1304,373.3618 L300.5214,386.5478 L292.8854,399.7178 L292.9324,399.6068 C291.2064,405.3998 289.5364,411.2098 287.7634,416.9888 C286.0034,422.7718 284.2244,428.5488 282.3474,434.2988 C283.8414,428.4378 285.4314,422.6058 287.0424,416.7788 C288.6394,410.9488 290.3394,405.1478 291.9824,399.3318 L291.9994,399.2738 L292.0304,399.2198 L299.7294,386.0858 L307.4534,372.9668 L315.2424,359.8858 L323.1264,346.8608 Z" id="Fill-139" fill="#C9C9C9"></path>
                <path d="M302.3042,346.7231 L294.5202,360.0391 L286.6432,373.2991 L278.7022,386.5201 L270.7352,399.7251 L270.7762,399.6421 C268.5702,405.4321 266.4202,411.2421 264.1692,417.0151 C261.9312,422.7921 259.6742,428.5631 257.3222,434.2981 C259.3002,428.4241 261.3732,422.5841 263.4652,416.7521 C265.5452,410.9151 267.7242,405.1161 269.8492,399.2961 L269.8652,399.2531 L269.8892,399.2121 L277.9182,386.0441 L285.9732,372.8931 L294.0922,359.7801 L302.3042,346.7231 Z" id="Fill-141" fill="#C9C9C9"></path>
                <path d="M264.5922,346.4741 C261.2962,350.9101 257.9742,355.3261 254.6292,359.7231 L244.5652,372.8931 L234.4252,386.0051 C231.0522,390.3811 227.6152,394.7081 224.2142,399.0621 L224.2682,398.9731 L220.1452,407.8361 L215.9622,416.6721 C213.1822,422.5681 210.3542,428.4401 207.4942,434.2981 C210.0892,428.3181 212.7142,422.3521 215.3882,416.4091 L219.3852,407.4871 L223.4422,398.5921 L223.4642,398.5451 L223.4962,398.5021 C226.8842,394.1391 230.2382,389.7461 233.6552,385.4061 L243.8832,372.3631 L254.1872,359.3781 C257.6322,355.0591 261.0992,350.7561 264.5922,346.4741" id="Fill-143" fill="#C9C9C9"></path>
                <path d="M247.5913,346.3735 C243.9953,350.8105 240.3753,355.2275 236.7333,359.6255 L225.7773,372.7945 L214.7483,385.9015 L203.6503,398.9515 L203.7133,398.8545 L199.4683,407.5745 L195.1633,416.2655 C192.3033,422.0635 189.3943,427.8385 186.4553,433.5985 C189.1323,427.7115 191.8393,421.8395 194.5943,415.9905 L198.7143,407.2115 L202.8933,398.4605 L202.9183,398.4085 L202.9563,398.3635 L214.0033,385.2705 L225.1183,372.2365 L236.3053,359.2635 C240.0443,354.9465 243.8053,350.6495 247.5913,346.3735" id="Fill-145" fill="#C9C9C9"></path>
                <path d="M229.7871,345.9448 C221.9381,354.7618 213.9821,363.4808 206.0311,372.2038 L194.0371,385.2238 C190.0471,389.5728 186.0321,393.8968 182.0011,398.2078 L182.0721,398.1088 C178.9061,403.9878 175.7651,409.8808 172.5371,415.7248 L167.7111,424.5028 L162.8161,433.2428 L167.3401,424.3048 L171.9341,415.4038 C174.9851,409.4648 178.1241,403.5718 181.2381,397.6648 L181.2661,397.6128 L181.3081,397.5658 C185.3001,393.2188 189.3071,388.8858 193.3391,384.5788 L205.4111,371.6288 C213.5041,363.0378 221.5921,354.4418 229.7871,345.9448" id="Fill-147" fill="#C9C9C9"></path>
                <path d="M190.3598,335.1391 L179.8308,345.5331 L169.2258,355.8481 L158.5608,366.1001 C154.9968,369.5081 151.4608,372.9451 147.8698,376.3251 L147.9368,376.2451 C143.1518,383.2271 138.4288,390.2501 133.5938,397.1991 C128.7868,404.1641 123.9558,411.1151 119.0528,418.0161 C123.6438,410.9031 128.3068,403.8391 132.9918,396.7901 C137.6518,389.7241 142.4218,382.7331 147.1308,375.7001 L147.1578,375.6591 L147.1978,375.6201 C150.7448,372.1941 154.3458,368.8261 157.9198,365.4281 L168.6678,355.2631 L179.4758,345.1611 L190.3598,335.1391 Z" id="Fill-149" fill="#C9C9C9"></path>
                <path d="M177.956,324.8227 L167.876,334.0577 L157.723,343.2107 L147.522,352.3067 L137.3,361.3827 L137.362,361.3167 C132.03,368.0307 126.744,374.7797 121.375,381.4647 C116.016,388.1567 110.641,394.8367 105.185,401.4527 C110.326,394.5887 115.546,387.7877 120.783,380.9997 C126.01,374.2037 131.319,367.4717 136.583,360.7057 L136.61,360.6707 L136.645,360.6397 L146.915,351.6207 L157.206,342.6237 L167.545,333.6817 L177.956,324.8227 Z" id="Fill-151" fill="#C9C9C9"></path>
                <path d="M169.0674,314.1909 L159.1164,322.1169 L149.1014,329.9589 C145.7724,332.5839 142.3954,335.1469 139.0434,337.7439 L128.9684,345.5069 L129.0144,345.4679 L120.1184,354.0999 C117.1494,356.9729 114.2004,359.8669 111.2044,362.7119 C105.2394,368.4309 99.2624,374.1369 93.2104,379.7669 C98.9764,373.8449 104.8174,367.9999 110.6714,362.1679 C113.5854,359.2369 116.5454,356.3539 119.4854,353.4519 L128.3174,344.7549 L128.3394,344.7349 L128.3634,344.7159 L138.4894,337.0199 C141.8714,334.4619 145.2274,331.8729 148.6314,329.3439 L158.8174,321.7249 L169.0674,314.1909 Z" id="Fill-153" fill="#C9C9C9"></path>
                <path d="M153.0698,285.1997 C146.5958,289.2437 140.0728,293.2057 133.5388,297.1467 C127.0148,301.1077 120.4308,304.9657 113.8808,308.8797 L113.9808,308.8017 L105.2428,317.6347 L96.4798,326.4437 L87.6598,335.1967 C84.6948,338.0897 81.7518,341.0047 78.7618,343.8727 C81.5838,340.8397 84.4518,337.8507 87.2988,334.8417 L95.9138,325.8867 L104.5848,316.9867 L113.2808,308.1127 L113.3268,308.0657 L113.3818,308.0337 C119.9768,304.1957 126.5398,300.3017 133.1618,296.5097 C139.7738,292.6977 146.3978,288.9077 153.0698,285.1997" id="Fill-155" fill="#C9C9C9"></path>
                <path d="M147.7685,271.0688 C141.2665,275.1838 134.7105,279.2128 128.1455,283.2228 C121.5865,287.2438 114.9745,291.1748 108.3905,295.1558 L108.4735,295.0938 L99.6935,303.1748 C96.7595,305.8598 93.8515,308.5728 90.8945,311.2338 L82.0445,319.2388 L73.1215,327.1638 L81.7055,318.8718 L90.3635,310.6608 C93.2425,307.9158 96.1705,305.2238 99.0715,302.5028 L107.7995,294.3678 L107.8385,294.3318 L107.8825,294.3048 C114.5105,290.3988 121.1085,286.4428 127.7595,282.5768 C134.4045,278.6998 141.0605,274.8398 147.7685,271.0688" id="Fill-157" fill="#C9C9C9"></path>
                <path d="M142.6259,257.3598 C136.0929,261.5758 129.5029,265.6978 122.9039,269.8048 C119.6149,271.8768 116.2899,273.8868 112.9809,275.9258 L103.0439,282.0238 L103.1109,281.9748 L94.3649,289.4788 C91.4429,291.9718 88.5469,294.4958 85.6019,296.9618 L76.7929,304.3918 L67.9149,311.7428 L76.4719,304.0208 L85.0979,296.3798 C87.9639,293.8208 90.8789,291.3198 93.7699,288.7898 L102.4589,281.2198 L102.4899,281.1928 L102.5249,281.1718 L112.5089,275.1508 C115.8409,273.1488 119.1559,271.1208 122.5069,269.1518 C129.1879,265.1808 135.8789,261.2238 142.6259,257.3598" id="Fill-159" fill="#C9C9C9"></path>
                <path d="M132.6049,230.6469 C129.1789,232.5349 125.7219,234.3629 122.2819,236.2209 L111.9079,241.6979 L101.4999,247.1069 L91.0779,252.4869 L91.1599,252.4339 C85.4759,256.9159 79.8289,261.4439 74.1139,265.8859 C68.4089,270.3409 62.6899,274.7799 56.9089,279.1399 C62.4419,274.4699 68.0379,269.8769 73.6469,265.3019 C79.2459,260.7129 84.9139,256.2109 90.5439,251.6629 L90.5829,251.6309 L90.6269,251.6089 L101.0809,246.2889 L111.5489,240.9979 L122.0519,235.7739 C125.5699,234.0659 129.0719,232.3269 132.6049,230.6469" id="Fill-161" fill="#C9C9C9"></path>
                <path d="M128.0708,218.56 C124.6138,220.445 121.1288,222.272 117.6558,224.124 L107.1918,229.592 L96.6908,234.987 L86.1738,240.35 L86.2488,240.303 C80.6128,244.529 75.0168,248.807 69.3468,252.989 C63.6928,257.19 58.0228,261.371 52.2968,265.477 C57.7878,261.062 63.3378,256.722 68.9008,252.401 C74.4498,248.062 80.0728,243.819 85.6548,239.523 L85.6898,239.497 L85.7308,239.476 L96.2728,234.163 L106.8318,228.881 L117.4258,223.672 C120.9738,221.966 124.5078,220.235 128.0708,218.56" id="Fill-163" fill="#C9C9C9"></path>
                <path d="M123.7016,206.9145 C120.2086,208.7805 116.6896,210.5935 113.1806,212.4265 L102.6096,217.8405 L92.0016,223.1785 C88.4596,224.9445 84.9356,226.7495 81.3766,228.4815 L81.4476,228.4385 C75.8726,232.4585 70.3416,236.5355 64.7316,240.5065 C59.1406,244.5025 53.5336,248.4775 47.8746,252.3795 C53.3096,248.1705 58.7986,244.0335 64.3026,239.9185 C69.7876,235.7775 75.3516,231.7445 80.8716,227.6525 L80.9026,227.6295 L80.9426,227.6085 C84.4736,225.8195 88.0406,224.1015 91.5886,222.3475 L102.2516,217.1185 L112.9516,211.9675 C116.5336,210.2785 120.1036,208.5685 123.7016,206.9145" id="Fill-165" fill="#C9C9C9"></path>
                <path d="M113.6855,180.2133 C106.5275,183.8493 99.3105,187.3603 92.0965,190.8763 L81.2385,196.0743 C77.6175,197.8023 74.0035,199.5473 70.3635,201.2343 L70.4445,201.1853 C65.1305,205.0843 59.8605,209.0433 54.5075,212.8903 C49.1775,216.7673 43.8285,220.6203 38.4315,224.4073 C43.6095,220.3253 48.8355,216.3093 54.0805,212.3163 C59.3025,208.2923 64.6075,204.3813 69.8685,200.4103 L69.9035,200.3843 L69.9505,200.3613 C73.5645,198.6173 77.2055,196.9323 80.8385,195.2293 L91.7465,190.1353 C99.0405,186.7883 106.3335,183.4403 113.6855,180.2133" id="Fill-167" fill="#C9C9C9"></path>
                <path d="M109.1792,168.2016 C101.9622,171.8346 94.6862,175.3426 87.4122,178.8536 L76.4652,184.0446 C72.8152,185.7726 69.1692,187.5096 65.4992,189.1946 L65.5902,189.1386 C60.4282,193.0966 55.3072,197.1046 50.1042,201.0096 C44.9252,204.9426 39.7252,208.8506 34.4782,212.6976 C39.5032,208.5646 44.5762,204.4946 49.6692,200.4486 C54.7392,196.3736 59.8902,192.4026 65.0002,188.3796 L65.0402,188.3486 L65.0912,188.3236 C68.7352,186.5836 72.4032,184.8926 76.0672,183.1956 L87.0622,178.1066 C94.4162,174.7656 101.7682,171.4216 109.1792,168.2016" id="Fill-169" fill="#C9C9C9"></path>
                <path d="M104.7011,156.2641 C97.4391,159.9261 90.1171,163.4601 82.7981,167.0011 L71.7811,172.2321 C68.1101,173.9771 64.4371,175.7201 60.7441,177.4191 L60.8361,177.3631 C55.7881,181.2711 50.7761,185.2231 45.6871,189.0781 C40.6211,192.9611 35.5331,196.8191 30.4001,200.6171 C35.3141,196.5381 40.2731,192.5181 45.2531,188.5251 C50.2111,184.5021 55.2461,180.5781 60.2451,176.6091 L60.2851,176.5771 L60.3381,176.5521 C64.0051,174.7981 67.6921,173.0871 71.3811,171.3791 L82.4441,166.2481 C89.8451,162.8821 97.2431,159.5091 104.7011,156.2641" id="Fill-171" fill="#C9C9C9"></path>
                <path d="M95.0918,130.6489 C87.7428,134.3969 80.3328,138.0129 72.9238,141.6339 L61.7718,146.9829 C58.0598,148.7779 54.3308,150.5379 50.5948,152.2809 L50.6598,152.2439 L43.2448,157.3069 C40.7798,159.0039 38.2818,160.6549 35.7988,162.3259 L28.3308,167.3119 L20.8188,172.2339 L28.0928,166.9669 L35.4118,161.7639 C37.8578,160.0389 40.2888,158.2919 42.7538,156.5929 L50.1248,151.4669 L50.1538,151.4469 L50.1908,151.4289 C53.9038,149.6379 57.6258,147.8639 61.3638,146.1239 L72.5608,140.8699 C80.0518,137.4219 87.5408,133.9699 95.0918,130.6489" id="Fill-173" fill="#C9C9C9"></path>
                <path d="M91.0722,119.934 C83.6442,123.619 76.1552,127.173 68.6682,130.727 L57.3992,135.978 C53.6482,137.742 49.8782,139.461 46.1042,141.175 L46.1762,141.135 L38.9202,146.127 C36.5092,147.801 34.0612,149.423 31.6332,151.073 L24.3232,155.988 L16.9722,160.841 L24.0882,155.649 L31.2472,150.518 C33.6412,148.819 36.0162,147.092 38.4272,145.417 L45.6402,140.363 L45.6722,140.341 L45.7112,140.322 C49.4662,138.567 53.2222,136.818 56.9992,135.112 L68.3122,129.956 C75.8792,126.572 83.4452,123.187 91.0722,119.934" id="Fill-175" fill="#C9C9C9"></path>
                <path d="M86.4033,107.4882 C79.0043,111.3772 71.5423,115.1372 64.0773,118.8912 L52.8443,124.4492 C49.1073,126.3162 45.3423,128.1272 41.5823,129.9472 L41.6303,129.9212 L34.4333,134.5302 L27.2033,139.0902 C24.7863,140.5992 22.3863,142.1352 19.9553,143.6212 L12.6683,148.0912 L19.7353,143.2802 C22.0883,141.6732 24.4733,140.1152 26.8413,138.5312 L33.9663,133.8092 L41.1243,129.1372 L41.1453,129.1232 L41.1723,129.1102 C44.9163,127.2572 48.6563,125.3952 52.4233,123.5882 L63.7033,118.1262 C71.2463,114.5332 78.7933,110.9462 86.4033,107.4882" id="Fill-177" fill="#C9C9C9"></path>
                <path d="M76.0132,79.7919 C72.1802,81.5839 68.3322,83.3419 64.4752,85.0799 L52.8882,90.2529 L41.2632,95.3369 C37.3952,97.0489 33.4912,98.6769 29.6052,100.3469 L29.6532,100.3229 C25.0452,102.9789 20.4232,105.6129 15.7772,108.2029 C11.1442,110.8169 6.4862,113.3879 1.8082,115.9229 C6.3352,113.1259 10.8822,110.3639 15.4542,107.6459 C20.0132,104.9039 24.5962,102.2049 29.1932,99.5279 L29.2152,99.5149 L29.2412,99.5039 C33.1202,97.8189 36.9812,96.0909 40.8782,94.4469 L52.5482,89.4639 L64.2562,84.5709 C68.1642,82.9539 72.0822,81.3559 76.0132,79.7919" id="Fill-179" fill="#C9C9C9"></path>
                <path d="M70.873,66.0898 C67.024,67.9228 63.166,69.7328 59.29,71.5038 C55.41,73.2628 51.551,75.0718 47.652,76.7898 L35.977,81.9938 L24.258,87.0998 L24.298,87.0788 C22.302,88.1918 20.321,89.3288 18.312,90.4198 L12.303,93.7178 C8.302,95.9258 4.27,98.0798 0.23,100.2188 C4.139,97.8488 8.057,95.4938 12.005,93.1928 L17.92,89.7278 C19.887,88.5638 21.88,87.4468 23.859,86.3038 L23.876,86.2938 L23.899,86.2838 L35.578,81.0878 L47.3,75.9908 C51.2,74.2758 55.141,72.6518 59.059,70.9768 C62.982,69.3138 66.923,67.6908 70.873,66.0898" id="Fill-181" fill="#C9C9C9"></path>
                <path d="M66.3027,53.9067 C62.4067,55.6977 58.5037,57.4727 54.5757,59.1897 C50.6527,60.9177 46.7347,62.6567 42.7867,64.3277 L30.9607,69.3747 L19.0907,74.3207 L19.1417,74.2957 L9.7167,79.6967 L4.9817,82.3607 L0.2297,84.9947 L4.8247,82.0957 L9.4387,79.2267 L18.7067,73.5607 L18.7287,73.5477 L18.7587,73.5347 L30.5777,68.4707 L42.4407,63.5067 C46.3897,61.8417 50.3677,60.2437 54.3407,58.6347 C58.3097,57.0147 62.3027,55.4527 66.3027,53.9067" id="Fill-183" fill="#C9C9C9"></path>
                <path d="M54.9961,23.7671 C47.3261,27.9521 39.5631,31.9531 31.7641,35.8791 C27.8771,37.8691 23.9531,39.7821 20.0341,41.7071 C16.1241,43.6511 12.1791,45.5231 8.2361,47.3991 L8.2751,47.3751 C6.9501,48.3101 5.6051,49.2191 4.2641,50.1331 L0.2291,52.8591 L4.0751,49.8721 C5.3611,48.8831 6.6431,47.8881 7.9451,46.9191 L7.9591,46.9081 L7.9841,46.8951 C11.8551,44.8741 15.7251,42.8501 19.6301,40.8971 C23.5251,38.9261 27.4151,36.9421 31.3431,35.0361 C39.1711,31.1671 47.0381,27.3751 54.9961,23.7671" id="Fill-185" fill="#C9C9C9"></path>
                <path d="M50.5493,11.9131 C46.4443,14.2401 42.2893,16.4691 38.1273,18.6831 C33.9663,20.8991 29.7643,23.0361 25.5853,25.2161 C21.3683,27.3241 17.1713,29.4711 12.9353,31.5431 L6.5713,34.6351 C5.5073,35.1421 4.4313,35.6301 3.3753,36.1531 L0.2303,37.7701 C4.1963,35.1941 8.4383,33.1251 12.5743,30.8641 C16.7373,28.6501 20.9393,26.5091 25.1213,24.3311 C29.3413,22.2241 33.5373,20.0741 37.7753,18.0031 C42.0123,15.9311 46.2563,13.8731 50.5493,11.9131" id="Fill-187" fill="#C9C9C9"></path>
                <polygon id="Fill-189" fill="#C9C9C9" points="46.08 0 0.46 24.211 -7.10542736e-15 23.323"></polygon>
                <path d="M0.2299,27.6308 L115.6429,313.4358 C120.4789,324.2558 123.6959,334.2588 128.6659,345.1098 C136.1849,361.5238 154.7199,396.3458 186.9279,398.5558 L336.7839,399.4658" id="Stroke-44" stroke="#CF2D26"></path>
            </g>
            <g id="right-bars" transform="translate(655.491100, 0.000000)">
                <path d="M7.9987,438.5369 L117.6017,437.8129 C121.7117,437.7329 125.8257,437.8979 129.9337,437.7189 C154.2657,436.6549 185.4717,439.5319 212.9357,384.8469 C213.9147,382.8969 214.6997,380.8239 215.6357,378.8639 L339.7717,47.9589 L370.1197,0.3689 L370.1197,200.2939 L289.3607,439.5139 C284.5257,450.3339 281.3077,460.3369 276.3377,471.1869 C268.8197,487.6019 250.2847,522.4239 218.0757,524.6339 L38.5537,526.6109 L32.7637,491.7809 L7.9987,438.5369" id="Fill-1" fill-opacity="0.35" fill="#4F316E"></path>
                <polygon id="Fill-23" fill="#C9C9C9" points="9.067 427.4854 35.146 489.6784 35.318 490.0894 35.338 490.3014 38.744 525.5274 30.57 491.0934 30.763 491.7164 0 431.7024"></polygon>
                <polygon id="Fill-25" fill="#C9C9C9" points="84.4996 433.0723 121.4076 489.5513 121.4616 489.6353 121.4856 489.7003 134.7266 525.5273 120.0906 490.2473 120.1686 490.3943 81.1916 435.3223"></polygon>
                <polygon id="Fill-27" fill="#C9C9C9" points="233.4908 331.5156 273.7738 356.3076 273.8518 356.3556 273.8888 356.3866 307.3068 384.3536 272.6908 357.8836 272.8048 357.9626 231.4698 334.9676"></polygon>
                <polygon id="Fill-29" fill="#C9C9C9" points="162.1256 430.9951 206.0156 481.6691 206.0566 481.7161 206.0756 481.7431 232.7656 520.7151 204.6986 482.7231 204.7586 482.7971 159.1476 433.6661"></polygon>
                <polygon id="Fill-31" fill="#C9C9C9" points="249.4864 282.3252 293.6774 305.3842 293.7534 305.4242 293.7904 305.4502 326.6884 329.3172 292.7784 306.9112 292.8914 306.9772 247.7154 285.9122"></polygon>
                <polygon id="Fill-33" fill="#C9C9C9" points="269.4557 232.9712 312.9007 255.4662 312.9717 255.5022 313.0037 255.5252 344.1687 277.5382 312.0367 256.9632 312.1397 257.0212 267.6997 236.5652"></polygon>
                <polygon id="Fill-35" fill="#C9C9C9" points="288.1104 181.9898 334.6834 205.2138 334.7274 205.2358 334.7394 205.2428 362.1564 221.8778 333.9794 206.5648 334.0354 206.5938 286.4114 185.6108"></polygon>
                <polygon id="Fill-37" fill="#C9C9C9" points="309.6222 126 356.3772 151.526 356.4652 151.573 369.5082 160.656 355.4882 153.17 355.5762 153.218 306.1992 133.23"></polygon>
                <polygon id="Fill-39" fill="#C9C9C9" points="283.7862 453.3614 248.2612 417.7014 248.4212 417.8374 207.5972 391.0134 209.8592 387.7154 249.5762 416.1534 249.6792 416.2264 249.7372 416.2894"></polygon>
            </g>
            <g id="left-bars" transform="translate(0.000000, 0.120100)">
                <path d="M0.4898,438.4168 L110.0928,437.6928 C114.2028,437.6128 118.3168,437.7778 122.4248,437.5988 C146.7568,436.5348 177.9628,439.4118 205.4268,384.7268 C206.4058,382.7768 207.1908,380.7038 208.1268,378.7438 L332.2628,47.8388 L362.6108,0.2488 L362.6108,200.1738 L281.8518,439.3938 C277.0168,450.2138 273.7988,460.2168 268.8288,471.0668 C261.3108,487.4818 242.7758,522.3038 210.5668,524.5138 L31.0448,526.4908 L25.2548,491.6608 L0.4898,438.4168" id="Fill-1" fill-opacity="0.35" fill="#4F316E" transform="translate(181.550300, 263.369800) scale(-1, 1) translate(-181.550300, -263.369800) "></path>
                <polygon id="Fill-51" fill="#C9C9C9" points="370.4003 431.8174 339.2953 491.3874 339.4483 490.8934 331.7643 525.4084 335.6603 490.2634 335.6793 490.0964 335.8143 489.7684 361.3333 427.6004"></polygon>
                <polygon id="Fill-53" fill="#C9C9C9" points="288.2187 436.8165 250.3397 490.2755 250.4177 490.1285 235.7817 525.4085 249.0227 489.5815 249.0477 489.5155 249.1007 489.4325 284.9117 434.5665"></polygon>
                <polygon id="Fill-55" fill="#C9C9C9" points="139.0395 334.8487 97.6975 357.8327 97.8105 357.7547 63.1855 384.2467 96.6275 356.2767 96.6645 356.2457 96.7415 356.1997 137.0185 331.3967"></polygon>
                <polygon id="Fill-57" fill="#C9C9C9" points="211.3535 433.5547 165.7485 482.6747 165.8075 482.6007 137.7375 520.6047 164.4365 481.6257 164.4555 481.5997 164.4965 481.5527 208.3755 430.8847"></polygon>
                <polygon id="Fill-59" fill="#C9C9C9" points="122.7934 285.793 77.6184 306.858 77.7304 306.792 44.4704 328.748 76.7184 305.331 76.7554 305.305 76.8314 305.265 121.0224 282.206"></polygon>
                <polygon id="Fill-61" fill="#C9C9C9" points="102.8095 236.4453 58.3695 256.9023 58.4725 256.8423 26.9945 276.9793 57.5055 255.4063 57.5375 255.3823 57.6085 255.3463 101.0535 232.8513"></polygon>
                <polygon id="Fill-63" fill="#C9C9C9" points="84.0981 185.4912 36.4731 206.4752 36.5291 206.4462 8.3521 221.7582 35.7691 205.1232 35.7811 205.1162 35.8261 205.0942 82.3981 181.8702"></polygon>
                <polygon id="Fill-65" fill="#C9C9C9" points="64.059 133.23 14.933 153.099 15.021 153.051 1 160.537 14.043 151.454 14.132 151.406 60.636 126"></polygon>
                <polygon id="Fill-67" fill="#C9C9C9" points="87.292 452.6465 120.77 416.1675 120.827 416.1045 120.931 416.0315 160.219 387.8915 162.482 391.1905 122.09 417.7205 122.25 417.5835"></polygon>
            </g>
            <g id="middle-divider" transform="translate(30.546500, 47.766700)">
                <g id="Fill-70">
                    <use fill="#A50A0A" fill-rule="evenodd" xlink:href="#path-10"></use>
                    <use fill="black" fill-opacity="1" filter="url(#filter-11)" xlink:href="#path-10"></use>
                </g>
                <g id="Fill-76">
                    <use fill="#A50A0A" fill-rule="evenodd" xlink:href="#path-12"></use>
                    <use fill="black" fill-opacity="1" filter="url(#filter-13)" xlink:href="#path-12"></use>
                </g>
                <path d="M482.453,362.8359 L195.919,361.1579 C167.296,359.2819 151.745,329.2909 144.142,315.7979 C139.057,306.7729 133.95,297.7759 128.729,288.9159 L0,0.0009 L124.136,330.9069 C125.072,332.8659 125.858,334.9399 126.836,336.8889 C154.3,391.5749 185.506,388.6969 209.838,389.7609 C213.946,389.9399 218.06,389.7749 222.171,389.8559 L482.453,391.5749 L482.453,391.5749 L482.453,362.8359 Z" id="Fill-70" fill-opacity="0.8" fill="#A50A0A" filter="url(#filter-14)"></path>
                <path d="M836.1781,288.915 C830.9571,297.775 825.8501,306.773 820.7651,315.797 C813.1611,329.29 797.6111,359.282 768.9881,361.157 L482.4541,362.836 L482.4541,391.574 L742.7371,389.854 C746.8471,389.774 750.9611,389.939 755.0691,389.76 C779.4011,388.697 810.6071,391.574 838.0711,336.888 C839.0491,334.939 839.8351,332.865 840.7711,330.906 L964.9071,2.84217094e-14 L836.1781,288.915 Z" id="Fill-76" fill-opacity="0.8" fill="#A50A0A" filter="url(#filter-15)"></path>
            </g>
        </g>
        <g id="foreground" transform="translate(7.000000, -7.409400)">
            <g id="topbar" transform="translate(101.405700, 0.000000)">
                <g id="Fill-48">
                    <use fill="#E82121" fill-rule="evenodd" xlink:href="#path-16"></use>
                    <use fill="black" fill-opacity="1" filter="url(#filter-17)" xlink:href="#path-16"></use>
                </g>
                <text id="E" font-family="Oswald-Regular, Oswald" font-size="20" font-weight="normal" fill="#FFFFFF">
                    <tspan x="147.5943" y="46.4094">E</tspan>
                </text>
                <text id="F" font-family="Oswald-Regular, Oswald" font-size="20" font-weight="normal" fill="#FFFFFF">
                    <tspan x="261.5943" y="46.4094">F</tspan>
                </text>
                <rect id="Rectangle" fill="#202020" x="163" y="22.4094" width="92" height="32"></rect>
                <rect id="Rectangle" fill="#7D0A0A" x="162.5943" y="22.4094" width="40" height="32"></rect>
                <path d="M631.5432,45.478 C623.5942,46.989 616.3022,40.893 616.3022,32.867 C616.3022,28.24 618.7782,23.988 622.8002,21.699 C623.4232,21.349 623.2612,20.41 622.5612,20.273 C621.5622,20.094 620.5632,20 619.5642,20 C610.5222,20 603.1792,27.334 603.1792,36.394 C603.1792,37.119 603.2392,37.828 603.3332,38.528 C603.8372,38.895 604.3232,39.288 604.7592,39.74 C605.7322,39.339 606.7822,39.125 607.8672,39.125 C612.3832,39.125 616.0642,42.806 616.0642,47.322 C616.0642,47.629 616.0462,47.937 616.0122,48.236 C618.0272,49.158 619.6322,50.754 620.5802,52.727 C625.2252,52.436 629.4342,50.225 632.2862,46.716 C632.7382,46.161 632.2432,45.341 631.5432,45.478" id="Path" fill="#FFFFFF"></path>
                <path d="M612.5452,50.114 C613.0322,49.294 613.3312,48.347 613.3312,47.322 C613.3312,44.308 610.8812,41.858 607.8672,41.858 C606.3982,41.858 605.0662,42.447 604.0852,43.386 C602.6932,40.859 600.0292,39.125 596.9382,39.125 C592.4132,39.125 588.7422,42.797 588.7422,47.322 C588.7422,47.493 588.7842,47.646 588.7932,47.809 C585.5912,48.927 583.2772,51.941 583.2772,55.519 C583.2772,60.044 586.9482,63.715 591.4742,63.715 L611.9652,63.715 C615.7392,63.715 618.7952,60.659 618.7952,56.885 C618.7952,53.307 616.0382,50.413 612.5452,50.114" id="Path" fill="#FFFFFF"></path>
                <text id="16:42" font-family="Oswald-Regular, Oswald" font-size="28" font-weight="normal" fill="#FFFFFF">
                    <tspan x="375.3077" y="49.5125504">16:42</tspan>
                </text>
                <text id="23" font-family="Oswald-Regular, Oswald" font-size="28" font-weight="normal" fill="#FFFFFF">
                    <tspan x="638.7597" y="48.0845504">23</tspan>
                </text>
                <text id="o" font-family="Oswald-Regular, Oswald" font-size="16.324" font-weight="normal" fill="#FFFFFF">
                    <tspan x="665.5054" y="42.0516197">o</tspan>
                </text>
            </g>
            <g id="bottombar" transform="translate(14.000000, 726.000000)">
                <text id="Arriving-in:-23-mins" fill="#797979" font-family="Oswald-Regular, Oswald" font-size="24" font-weight="normal">
                    <tspan x="0" y="29">Arriving in: 23 mins</tspan>
                </text>
                <text id="Vehicle-Stats:-no-ma" fill="#797979" font-family="Oswald-Regular, Oswald" font-size="24" font-weight="normal">
                    <tspan x="674.792" y="29">Vehicle Stats: no malfunctions    </tspan>
                </text>
                <polyline id="check" stroke="#006D0A" stroke-width="5" stroke-linecap="square" stroke-linejoin="round" points="946.5 20.1050522 956.708333 27.4094 979 7.9094"></polyline>
            </g>
            <g id="gears" transform="translate(379.000000, 615.409400)" font-family="Oswald-Regular, Oswald" font-size="34.98" font-weight="normal" letter-spacing="37.12016">
                <text id="P" filter="url(#filter-19)" fill="#A21515">
                    <tspan x="2" y="42">P</tspan>
                </text>
                <text id="PRNDS" fill="#FFFFFF">
                    <tspan x="2.01265" y="42">P</tspan>
                    <tspan x="55.92321" y="42" letter-spacing="37.26008">R</tspan>
                    <tspan x="111.33791" y="42" letter-spacing="37.4">NDS</tspan>
                </text>
                <text id="P" fill="#E21515">
                    <tspan x="2" y="42">P</tspan>
                </text>
            </g>
            <g id="navigation" transform="translate(397.000000, 681.159400)" fill-rule="nonzero">
                <path id="Path-6" d="M116.12348,2.30964485e-06 L130.711559,28.9557956 L118.711,28.991 L118.874988,82.7424013 L113.875012,82.7575987 L113.712,29.007 L101.711693,29.0439411 L116.12348,2.30964485e-06 Z" fill="#393939"></path>
                <path id="Path-7" d="M196.23124,3.79274616 L216.493718,10.1709896 L199.233636,22.5540259 L198.038942,15.0908551 C187.672927,19.8659706 182.5,29.8225793 182.5,45.25 L182.5,45.25 L182.5,73.25 L179.5,73.25 L179.5,45.25 C179.5,28.3603874 185.523211,17.1826372 197.548091,12.0259031 L196.23124,3.79274616 Z" fill="#E21515" filter="url(#filter-21)"></path>
                <path id="Path-7" d="M196.23124,3.79274616 L216.493718,10.1709896 L199.233636,22.5540259 L198.038942,15.0908551 C187.672927,19.8659706 182.5,29.8225793 182.5,45.25 L182.5,45.25 L182.5,73.25 L179.5,73.25 L179.5,45.25 C179.5,28.3603874 185.523211,17.1826372 197.548091,12.0259031 L196.23124,3.79274616 Z" fill="#E21515"></path>
                <path id="Path-7-Copy" d="M15.23124,3.79274616 L35.4937179,10.1709896 L18.2336364,22.5540259 L17.0389421,15.0908551 C6.67292726,19.8659706 1.5,29.8225793 1.5,45.25 L1.5,45.25 L1.5,73.25 L-1.5,73.25 L-1.5,45.25 C-1.5,28.3603874 4.523211,17.1826372 16.5480905,12.0259031 L15.23124,3.79274616 Z" fill="#393939"></path>
            </g>
            <g id="right-numbers" transform="translate(681.401900, 326.409400)" fill="#FFFFFF" font-family="Oswald-Regular, Oswald" font-size="22" font-weight="normal">
                <text id="0">
                    <tspan x="0" y="370.848618">0</tspan>
                </text>
                <text id="1">
                    <tspan x="91.08" y="370.848618">1</tspan>
                </text>
                <text id="2">
                    <tspan x="196.416" y="364.050618">2</tspan>
                </text>
                <text id="3">
                    <tspan x="253.55" y="293.914618">3</tspan>
                </text>
                <text id="4">
                    <tspan x="285.296" y="224.526618">4</tspan>
                </text>
                <text id="5">
                    <tspan x="296.5981" y="161">5</tspan>
                </text>
                <text id="6">
                    <tspan x="319.5981" y="108">6</tspan>
                </text>
                <text id="7">
                    <tspan x="325.5981" y="26">7</tspan>
                </text>
            </g>
            <g id="left-numbers" transform="translate(0.781200, 466.835018)" fill="#FFFFFF" font-family="Oswald-Regular, Oswald" font-size="22" font-weight="normal">
                <text id="0">
                    <tspan x="317.46" y="230.424">0</tspan>
                </text>
                <text id="23">
                    <tspan x="216.084" y="230.424">23</tspan>
                </text>
                <text id="40">
                    <tspan x="110.286" y="223.626">40</tspan>
                </text>
                <text id="60">
                    <tspan x="52.91" y="153.49">60</tspan>
                </text>
                <text id="80">
                    <tspan x="21.164" y="84.102">80</tspan>
                </text>
                <text id="100">
                    <tspan x="0" y="26">100</tspan>
                </text>
            </g>
            <g id="right-read" transform="translate(799.834000, 65.106257)" fill="#FFFFFF" font-family="Oswald-Regular, Oswald" font-weight="normal">
                <text id="160" filter="url(#filter-23)" font-size="85">
                    <tspan x="0" y="101">160</tspan>
                </text>
                <text id="160" font-size="85">
                    <tspan x="0" y="101">160</tspan>
                </text>
                <text id="rpm" font-size="32">
                    <tspan x="69.4912" y="147.144315">rpm</tspan>
                </text>
            </g>
            <g id="left-read" transform="translate(88.189500, 65.107157)" fill="#FFFFFF" font-family="Oswald-Regular, Oswald" font-weight="normal">
                <text id="160" font-size="85">
                    <tspan x="0" y="101">160</tspan>
                </text>
                <text id="160" filter="url(#filter-25)" font-size="85">
                    <tspan x="0" y="101">160</tspan>
                </text>
                <text id="mph" font-size="32">
                    <tspan x="0" y="147.144415">mph</tspan>
                </text>
            </g>
        </g>
        <g id="beginning" transform="translate(-2.000000, -1.000000)"></g>
    </g>
</svg>